<svg width="153" height="150" viewBox="0 0 153 150" fill="none" xmlns="http://www.w3.org/2000/svg">
<rect y="74.8553" width="105.861" height="105.861" rx="12" transform="rotate(-45 0 74.8553)" fill="#7638CC"/>
<path d="M49.2853 89.9709C47.329 91.9272 45.2077 93.4357 42.9214 94.4964C40.6115 95.5335 38.2663 96.0874 35.8857 96.1581C33.5286 96.2052 31.2305 95.7927 28.9914 94.9206C26.7286 94.025 24.6545 92.6343 22.7688 90.7487C20.8832 88.8631 19.5044 86.8007 18.6323 84.5615C17.7366 82.2988 17.3241 79.9771 17.3948 77.5965C17.4655 75.2159 18.0312 72.8825 19.0919 70.5962C20.1525 68.2627 21.6846 66.0942 23.6881 64.0908C26.0215 61.7573 28.4964 60.0603 31.1127 58.9996C33.729 57.9389 36.3689 57.5383 39.0323 57.7975L38.608 66.2828C36.8403 66.2121 35.2375 66.4478 33.7997 66.9899C32.3619 67.4849 31.042 68.3334 29.8399 69.5355C28.7792 70.5962 27.9779 71.7275 27.4357 72.9296C26.8936 74.1317 26.6344 75.3573 26.6579 76.6066C26.6579 77.8322 26.9172 79.0579 27.4357 80.2835C27.9543 81.462 28.7557 82.5934 29.8399 83.6776C30.877 84.7147 31.9966 85.5043 33.1987 86.0464C34.4243 86.565 35.6618 86.836 36.911 86.8596C38.1366 86.8596 39.3505 86.6121 40.5526 86.1172C41.7547 85.575 42.8742 84.7854 43.9113 83.7483C44.9484 82.7113 45.7969 81.5327 46.4569 80.2128C47.0933 78.8693 47.5058 77.2783 47.6944 75.4398L56.5332 76.4298C56.1325 78.8575 55.2722 81.2735 53.9522 83.6776C52.6323 86.0818 51.0767 88.1795 49.2853 89.9709ZM49.4268 81.6977L40.093 72.3639L46.2801 66.1767L56.5332 76.4298L49.4268 81.6977Z" fill="white"/>
<path d="M88.6084 87.1951C86.5813 89.2221 84.3775 90.931 81.9969 92.3216C79.6163 93.6651 77.4361 94.5254 75.4562 94.9026L72.5924 87.4426C74.4073 87.0419 76.2694 86.3583 78.1786 85.392C80.0878 84.3784 81.7612 83.1528 83.199 81.715C84.1654 80.7486 84.8607 79.8883 85.285 79.1341C85.6857 78.3563 85.8742 77.6963 85.8507 77.1542C85.8271 76.5649 85.615 76.0699 85.2143 75.6692C84.6486 75.1036 83.9415 74.915 83.093 75.1036C82.2444 75.2921 81.3016 75.6928 80.2645 76.3056C79.2274 76.9185 78.0961 77.6256 76.8704 78.427C75.6683 79.2048 74.3955 79.9355 73.052 80.619C71.7321 81.279 70.4004 81.7621 69.0569 82.0686C67.6898 82.3514 66.3227 82.3278 64.9557 81.9979C63.565 81.6443 62.2097 80.8076 60.8898 79.4876C59.4049 78.0027 58.4621 76.2585 58.0614 74.255C57.6843 72.228 57.9435 70.036 58.8392 67.6789C59.7349 65.3219 61.3966 62.9295 63.8243 60.5018C65.4506 58.8755 67.2302 57.473 69.163 56.2945C71.0957 55.0689 73.0285 54.1968 74.9612 53.6782L78.0018 61.0321C76.1869 61.5742 74.5487 62.2696 73.0874 63.1181C71.6025 63.9431 70.3179 64.8977 69.2337 65.9819C68.2673 66.9483 67.5955 67.8321 67.2184 68.6335C66.8177 69.4114 66.6527 70.0949 66.7234 70.6841C66.7941 71.2734 67.0416 71.7802 67.4659 72.2044C68.008 72.7465 68.6915 72.9351 69.5165 72.7701C70.3415 72.558 71.2725 72.1455 72.3096 71.5327C73.3467 70.8727 74.4663 70.1538 75.6683 69.376C76.894 68.5746 78.1668 67.8439 79.4867 67.184C80.8066 66.4769 82.1501 65.9819 83.5172 65.699C84.8607 65.3926 86.216 65.428 87.5831 65.8051C88.9502 66.1351 90.2819 66.9483 91.5782 68.2446C93.016 69.6824 93.9353 71.4266 94.336 73.4772C94.7366 75.4807 94.4892 77.6609 93.5935 80.018C92.7214 82.3514 91.0597 84.7438 88.6084 87.1951Z" fill="white"/>
<path d="M129.285 81.5181C127.329 83.4745 125.208 84.983 122.921 86.0436C120.611 87.0807 118.266 87.6346 115.886 87.7053C113.529 87.7525 111.231 87.34 108.991 86.4679C106.729 85.5722 104.654 84.1816 102.769 82.2959C100.883 80.4103 99.5044 78.3479 98.6323 76.1088C97.7366 73.846 97.3241 71.5244 97.3948 69.1438C97.4655 66.7632 98.0312 64.4297 99.0919 62.1434C100.153 59.81 101.685 57.6415 103.688 55.638C106.022 53.3046 108.496 51.6075 111.113 50.5469C113.729 49.4862 116.369 49.0855 119.032 49.3448L118.608 57.8301C116.84 57.7593 115.237 57.995 113.8 58.5372C112.362 59.0321 111.042 59.8807 109.84 61.0827C108.779 62.1434 107.978 63.2748 107.436 64.4769C106.894 65.6789 106.634 66.9046 106.658 68.1538C106.658 69.3795 106.917 70.6051 107.436 71.8308C107.954 73.0093 108.756 74.1406 109.84 75.2249C110.877 76.262 111.997 77.0516 113.199 77.5937C114.424 78.1122 115.662 78.3833 116.911 78.4069C118.137 78.4069 119.35 78.1594 120.553 77.6644C121.755 77.1223 122.874 76.3327 123.911 75.2956C124.948 74.2585 125.797 73.08 126.457 71.7601C127.093 70.4166 127.506 68.8256 127.694 66.9871L136.533 67.977C136.132 70.4048 135.272 72.8207 133.952 75.2249C132.632 77.629 131.077 79.7268 129.285 81.5181ZM129.427 73.245L120.093 63.9112L126.28 57.724L136.533 67.977L129.427 73.245Z" fill="white"/>
</svg>
